<?xml version="1.0" encoding="UTF-8"?>
<svg viewBox="0 0 1024 1024" version="1.1" xmlns="http://www.w3.org/2000/svg" xmlns:xlink="http://www.w3.org/1999/xlink">
    <title>好评</title>
    <g id="好评" stroke="none" stroke-width="1" fill="none" fill-rule="evenodd">
        <g id="选择" fill-rule="nonzero">
            <rect id="矩形" fill="#000000" opacity="0" x="0" y="0" width="1024" height="1024"></rect>
            <path d="M512,64 C759.424,64 960,264.576 960,512 C960,759.424 759.424,960 512,960 C264.576,960 64,759.424 64,512 C64,264.576 264.576,64 512,64 Z M761.57,359.66 C747.575,345.537 724.781,345.434 710.66,359.43 L449.792,617.955 L319.702,485.295 L319.282,484.875 C305.327,471.097 282.847,471.016 268.793,484.798 C254.598,498.718 254.375,521.512 268.295,535.708 L423.725,694.206 L424.146,694.629 C438.154,708.456 460.736,708.477 474.769,694.57 L761.339,410.57 L761.759,410.148 C775.463,396.12 775.425,373.64 761.569,359.659 L761.57,359.66 Z" id="形状" fill="#333333"></path>
        </g>
    </g>
</svg>