<?xml version="1.0" encoding="UTF-8"?>
<svg viewBox="0 0 1024 1024" version="1.1" xmlns="http://www.w3.org/2000/svg" xmlns:xlink="http://www.w3.org/1999/xlink">
    <title>开启</title>
    <style type="text/css">
	.st0{fill:none;}
</style>
    <g id="开启" stroke="none" stroke-width="1" fill="none" fill-rule="evenodd">
        <g id="选框对勾" transform="translate(549.000000, 548.000000)" fill="#000000" fill-rule="nonzero">
            <rect id="矩形" opacity="0" x="0" y="0" width="16" height="16"></rect>
            <path d="M14.6552812,3.579125 C14.94825,3.87209375 14.94825,4.34714063 14.6552812,4.640125 L6.87535938,12.420875 C6.65523438,12.6410313 6.33234375,12.6957656 6.06114063,12.5850781 C5.96677475,12.5473549 5.8810919,12.4907859 5.80932813,12.4188281 L1.34471875,7.95371875 C1.05175,7.66071875 1.05175,7.1856875 1.34471875,6.89270313 C1.6376875,6.59970313 2.11265625,6.59970313 2.40560938,6.89270313 L6.343375,10.830875 L13.594375,3.579125 C13.8873281,3.286125 14.3623125,3.286125 14.6552656,3.579125 L14.6552812,3.579125 Z" id="路径"></path>
        </g>
        <g id="选框对勾">
            <rect id="矩形" fill="#000000" fill-rule="nonzero" opacity="0" x="0" y="0" width="1024" height="1024"></rect>
            <g id="编组" transform="translate(71.000000, 215.000000)" fill="#262626">
                <path d="M866.286976,14.3841636 C885.032142,33.1293296 885.032142,63.5212486 866.286976,82.2664146 L368.483802,580.069589 L368.110513,580.439631 C367.999909,580.552398 367.888636,580.664754 367.776695,580.776695 C349.031529,599.521861 318.63961,599.521861 299.894444,580.776695 L14.2233047,295.105556 C-4.5218613,276.36039 -4.5218613,245.968471 14.2233047,227.223305 C32.9684707,208.478139 63.3603897,208.478139 82.1055557,227.223305 L333.83543,478.953289 L798.404725,14.3841636 C817.149891,-4.36100244 847.54181,-4.36100244 866.286976,14.3841636 Z" id="形状结合"></path>
            </g>
        </g>
    </g>
</svg>