<?xml version="1.0" encoding="UTF-8"?>
<svg viewBox="0 0 1024 1024" version="1.1" xmlns="http://www.w3.org/2000/svg" xmlns:xlink="http://www.w3.org/1999/xlink">
    <title>差评 </title>
    <g id="差评-" stroke="none" stroke-width="1" fill="none">
        <rect id="矩形" stroke="#979797" fill="#D8D8D8" opacity="0" x="0.077343935" y="0.077343935" width="1024" height="1024"></rect>
        <path d="M512,64 C759.424,64 960,264.576 960,512 C960,759.424 759.424,960 512,960 C264.576,960 64,759.424 64,512 C64,264.576 264.576,64 512,64 Z M681.638836,342.294373 C669.095602,329.751139 648.759002,329.751139 636.215769,342.294373 L636.215769,342.294373 L511.966059,466.542933 L387.71744,342.294373 C375.174206,329.751139 354.837606,329.751139 342.294373,342.294373 C329.751139,354.837606 329.751139,375.174206 342.294373,387.71744 L342.294373,387.71744 L466.543641,511.965352 L342.294373,636.215769 C329.751139,648.759002 329.751139,669.095602 342.294373,681.638836 C354.837606,694.18207 375.174206,694.18207 387.71744,681.638836 L387.71744,681.638836 L511.966766,557.388477 L636.215769,681.638836 C648.759002,694.18207 669.095602,694.18207 681.638836,681.638836 C694.18207,669.095602 694.18207,648.759002 681.638836,636.215769 L681.638836,636.215769 L557.389184,511.966059 L681.638836,387.71744 C694.18207,375.174206 694.18207,354.837606 681.638836,342.294373 Z" id="形状结合" fill="#333333" ></path>
    </g>
</svg>