<svg t="1629860521660" class="icon" viewBox="0 0 1024 1024" version="1.1" xmlns="http://www.w3.org/2000/svg" p-id="6991" width="16" height="16"><path d="M949.12 280.547l0.33 0.332c14.065 14.053 14.067 36.847 0.01 50.907-0.002 0.002-0.004 0.003-0.01 0L537.717 743.453c-7.097 7.09-16.417 10.603-25.715 10.537-9.3 0.067-18.62-3.446-25.717-10.537L74.55 331.786c-0.005 0.003-0.007 0.002-0.008 0-14.058-14.06-14.056-36.854 0.008-50.907l0.332-0.332c14.062-14.051 36.853-14.051 50.916 0L512 666.686l386.203-386.139c14.063-14.051 36.854-14.051 50.916 0z" p-id="6992"></path></svg>