<?xml version="1.0" standalone="no"?><!DOCTYPE svg PUBLIC "-//W3C//DTD SVG 1.1//EN" "http://www.w3.org/Graphics/SVG/1.1/DTD/svg11.dtd"><svg t="1628842398159" class="icon" viewBox="0 0 1024 1024" version="1.1" xmlns="http://www.w3.org/2000/svg" p-id="56883" xmlns:xlink="http://www.w3.org/1999/xlink" width="200" height="200"><defs><style type="text/css"></style></defs><path d="M513.504407 63.185113c248.151005 0 449.316357 201.165352 449.316357 449.316356S761.655412 961.817826 513.504407 961.817826 64.188051 760.652474 64.188051 512.501469 265.353403 63.185113 513.504407 63.185113z m115.813297 241.259816c-14.076239-14.111342-36.8981-14.111342-50.974339 0l-180.1899 180.639216a36.531024 36.531024 0 0 0-2.467228 2.258617c-7.066703 7.083753-10.585011 16.375976-10.557931 25.660176-0.027079 9.2842 3.491228 18.576423 10.556928 25.660177a36.531024 36.531024 0 0 0 2.468231 2.257614L578.344368 721.560948c14.076239 14.111342 36.8981 14.111342 50.974339 0 14.076239-14.111342 14.076239-36.99037 0-51.101712L472.255561 513.001935l157.062143-157.455294c14.076239-14.111342 14.076239-36.99037 0-51.101712z" fill="#333333" p-id="56884"></path></svg>