<?xml version="1.0" standalone="no"?><!DOCTYPE svg PUBLIC "-//W3C//DTD SVG 1.1//EN" "http://www.w3.org/Graphics/SVG/1.1/DTD/svg11.dtd"><svg t="1628842392811" class="icon" viewBox="0 0 1024 1024" version="1.1" xmlns="http://www.w3.org/2000/svg" p-id="56756" xmlns:xlink="http://www.w3.org/1999/xlink" width="200" height="200"><defs><style type="text/css"></style></defs><path d="M513.504407 63.185113C265.353403 63.185113 64.188051 264.350464 64.188051 512.501469s201.165352 449.316357 449.316356 449.316357 449.316357-201.165352 449.316357-449.316357S761.655412 63.185113 513.504407 63.185113zM397.691111 304.444929c14.076239-14.111342 36.8981-14.111342 50.974339 0l180.1899 180.639216a36.531024 36.531024 0 0 1 2.467228 2.258617c7.066703 7.083753 10.585011 16.375976 10.557931 25.660176 0.027079 9.2842-3.491228 18.576423-10.556928 25.660177a36.531024 36.531024 0 0 1-2.468231 2.257614L448.664447 721.560948c-14.076239 14.111342-36.8981 14.111342-50.974339 0-14.076239-14.111342-14.076239-36.99037 0-51.101712l157.062143-157.457301-157.062143-157.455294c-14.076239-14.111342-14.076239-36.99037 0-51.101712z" fill="#333333" p-id="56757"></path></svg>