<?xml version="1.0" standalone="no"?><!DOCTYPE svg PUBLIC "-//W3C//DTD SVG 1.1//EN" "http://www.w3.org/Graphics/SVG/1.1/DTD/svg11.dtd"><svg t="1628842366023" class="icon" viewBox="0 0 1024 1024" version="1.1" xmlns="http://www.w3.org/2000/svg" p-id="56368" xmlns:xlink="http://www.w3.org/1999/xlink" width="200" height="200"><defs><style type="text/css"></style></defs><path d="M512 64c247.424 0 448 200.576 448 448S759.424 960 512 960 64 759.424 64 512 264.576 64 512 64z m0 72c-207.66 0-376 168.34-376 376s168.34 376 376 376 376-168.34 376-376-168.34-376-376-376z m115.474 168.553c14.035 14.07 14.035 36.882 0 50.952L470.872 512.5l156.602 156.996c14.035 14.07 14.035 36.882 0 50.952s-36.79 14.07-50.825 0l-179.662-180.11a36.424 36.424 0 0 1-2.46-2.252c-7.046-7.063-10.554-16.328-10.527-25.585-0.027-9.257 3.481-18.522 10.526-25.585a36.424 36.424 0 0 1 2.461-2.251L576.65 304.553c14.035-14.07 36.79-14.07 50.825 0z" fill="#333333" p-id="56369"></path></svg>