<?xml version="1.0" standalone="no"?><!DOCTYPE svg PUBLIC "-//W3C//DTD SVG 1.1//EN" "http://www.w3.org/Graphics/SVG/1.1/DTD/svg11.dtd"><svg t="1628842378807" class="icon" viewBox="0 0 1024 1024" version="1.1" xmlns="http://www.w3.org/2000/svg" p-id="56495" xmlns:xlink="http://www.w3.org/1999/xlink" width="200" height="200"><defs><style type="text/css"></style></defs><path d="M512 64C264.576 64 64 264.576 64 512s200.576 448 448 448 448-200.576 448-448S759.424 64 512 64z m0 72c207.66 0 376 168.34 376 376S719.66 888 512 888 136 719.66 136 512s168.34-376 376-376zM396.526 304.553c-14.035 14.07-14.035 36.882 0 50.952L553.128 512.5 396.526 669.495c-14.035 14.07-14.035 36.882 0 50.952s36.79 14.07 50.825 0l179.662-180.11a36.424 36.424 0 0 0 2.46-2.252c7.046-7.063 10.554-16.328 10.527-25.585 0.027-9.257-3.481-18.522-10.526-25.585a36.424 36.424 0 0 0-2.461-2.251L447.35 304.553c-14.035-14.07-36.79-14.07-50.825 0z" fill="#333333" p-id="56496"></path></svg>