<svg t="1629860482460" class="icon" viewBox="0 0 1024 1024" version="1.1" xmlns="http://www.w3.org/2000/svg" p-id="6849" width="16" height="16"><path d="M74.88 743.453l-0.33-0.33200001c-14.065-14.053-14.067-36.84700001-0.01-50.90699999 0.002-0.002 0.004-0.003 0.01-1e-8L486.283 280.547c7.097-7.08999999 16.417-10.603 25.71500001-10.537 9.3-0.067 18.62 3.446 25.71699999 10.537L949.45 692.21399999c0.00499999-0.003 0.007-0.002 0.008 1e-8 14.058 14.06 14.056 36.854-0.008 50.90699999l-0.33200001 0.33200001c-14.062 14.051-36.853 14.051-50.91599999 0L512 357.31400001l-386.203 386.13899999c-14.063 14.051-36.854 14.051-50.916 0z" p-id="6850"></path></svg>